<svg aria-roledescription="flowchart-v2" role="graphics-document document" viewBox="-8 -8 1332.296875 1119" style="max-width: 1332.296875px;" xmlns="http://www.w3.org/2000/svg" width="100%" id="mermaid-svg-1754106908441-ywokblzky"><style>#mermaid-svg-1754106908441-ywokblzky{font-family:"trebuchet ms",verdana,arial,sans-serif;font-size:16px;fill:rgba(204, 204, 204, 0.87);}#mermaid-svg-1754106908441-ywokblzky .error-icon{fill:#bf616a;}#mermaid-svg-1754106908441-ywokblzky .error-text{fill:#bf616a;stroke:#bf616a;}#mermaid-svg-1754106908441-ywokblzky .edge-thickness-normal{stroke-width:2px;}#mermaid-svg-1754106908441-ywokblzky .edge-thickness-thick{stroke-width:3.5px;}#mermaid-svg-1754106908441-ywokblzky .edge-pattern-solid{stroke-dasharray:0;}#mermaid-svg-1754106908441-ywokblzky .edge-pattern-dashed{stroke-dasharray:3;}#mermaid-svg-1754106908441-ywokblzky .edge-pattern-dotted{stroke-dasharray:2;}#mermaid-svg-1754106908441-ywokblzky .marker{fill:rgba(204, 204, 204, 0.87);stroke:rgba(204, 204, 204, 0.87);}#mermaid-svg-1754106908441-ywokblzky .marker.cross{stroke:rgba(204, 204, 204, 0.87);}#mermaid-svg-1754106908441-ywokblzky svg{font-family:"trebuchet ms",verdana,arial,sans-serif;font-size:16px;}#mermaid-svg-1754106908441-ywokblzky .label{font-family:"trebuchet ms",verdana,arial,sans-serif;color:rgba(204, 204, 204, 0.87);}#mermaid-svg-1754106908441-ywokblzky .cluster-label text{fill:#ffffff;}#mermaid-svg-1754106908441-ywokblzky .cluster-label span,#mermaid-svg-1754106908441-ywokblzky p{color:#ffffff;}#mermaid-svg-1754106908441-ywokblzky .label text,#mermaid-svg-1754106908441-ywokblzky span,#mermaid-svg-1754106908441-ywokblzky p{fill:rgba(204, 204, 204, 0.87);color:rgba(204, 204, 204, 0.87);}#mermaid-svg-1754106908441-ywokblzky .node rect,#mermaid-svg-1754106908441-ywokblzky .node circle,#mermaid-svg-1754106908441-ywokblzky .node ellipse,#mermaid-svg-1754106908441-ywokblzky .node polygon,#mermaid-svg-1754106908441-ywokblzky .node path{fill:#1a1a1a;stroke:#2a2a2a;stroke-width:1px;}#mermaid-svg-1754106908441-ywokblzky .flowchart-label text{text-anchor:middle;}#mermaid-svg-1754106908441-ywokblzky .node .label{text-align:center;}#mermaid-svg-1754106908441-ywokblzky .node.clickable{cursor:pointer;}#mermaid-svg-1754106908441-ywokblzky .arrowheadPath{fill:#e5e5e5;}#mermaid-svg-1754106908441-ywokblzky .edgePath .path{stroke:rgba(204, 204, 204, 0.87);stroke-width:2.0px;}#mermaid-svg-1754106908441-ywokblzky .flowchart-link{stroke:rgba(204, 204, 204, 0.87);fill:none;}#mermaid-svg-1754106908441-ywokblzky .edgeLabel{background-color:#1a1a1a99;text-align:center;}#mermaid-svg-1754106908441-ywokblzky .edgeLabel rect{opacity:0.5;background-color:#1a1a1a99;fill:#1a1a1a99;}#mermaid-svg-1754106908441-ywokblzky .labelBkg{background-color:rgba(26, 26, 26, 0.5);}#mermaid-svg-1754106908441-ywokblzky .cluster rect{fill:rgba(64, 64, 64, 0.47);stroke:#30373a;stroke-width:1px;}#mermaid-svg-1754106908441-ywokblzky .cluster text{fill:#ffffff;}#mermaid-svg-1754106908441-ywokblzky .cluster span,#mermaid-svg-1754106908441-ywokblzky p{color:#ffffff;}#mermaid-svg-1754106908441-ywokblzky div.mermaidTooltip{position:absolute;text-align:center;max-width:200px;padding:2px;font-family:"trebuchet ms",verdana,arial,sans-serif;font-size:12px;background:#88c0d0;border:1px solid #30373a;border-radius:2px;pointer-events:none;z-index:100;}#mermaid-svg-1754106908441-ywokblzky .flowchartTitleText{text-anchor:middle;font-size:18px;fill:rgba(204, 204, 204, 0.87);}#mermaid-svg-1754106908441-ywokblzky :root{--mermaid-font-family:"trebuchet ms",verdana,arial,sans-serif;}#mermaid-svg-1754106908441-ywokblzky .userStyle&gt;*{fill:#e1f5fe!important;stroke:#01579b!important;stroke-width:2px!important;color:#000!important;}#mermaid-svg-1754106908441-ywokblzky .userStyle span{fill:#e1f5fe!important;stroke:#01579b!important;stroke-width:2px!important;color:#000!important;}#mermaid-svg-1754106908441-ywokblzky .userStyle tspan{fill:#000!important;}#mermaid-svg-1754106908441-ywokblzky .frontendStyle&gt;*{fill:#e8f5e8!important;stroke:#2e7d32!important;stroke-width:2px!important;color:#000!important;}#mermaid-svg-1754106908441-ywokblzky .frontendStyle span{fill:#e8f5e8!important;stroke:#2e7d32!important;stroke-width:2px!important;color:#000!important;}#mermaid-svg-1754106908441-ywokblzky .frontendStyle tspan{fill:#000!important;}#mermaid-svg-1754106908441-ywokblzky .backendStyle&gt;*{fill:#fff3e0!important;stroke:#ef6c00!important;stroke-width:2px!important;color:#000!important;}#mermaid-svg-1754106908441-ywokblzky .backendStyle span{fill:#fff3e0!important;stroke:#ef6c00!important;stroke-width:2px!important;color:#000!important;}#mermaid-svg-1754106908441-ywokblzky .backendStyle tspan{fill:#000!important;}#mermaid-svg-1754106908441-ywokblzky .storageStyle&gt;*{fill:#f3e5f5!important;stroke:#7b1fa2!important;stroke-width:2px!important;color:#000!important;}#mermaid-svg-1754106908441-ywokblzky .storageStyle span{fill:#f3e5f5!important;stroke:#7b1fa2!important;stroke-width:2px!important;color:#000!important;}#mermaid-svg-1754106908441-ywokblzky .storageStyle tspan{fill:#000!important;}#mermaid-svg-1754106908441-ywokblzky .externalStyle&gt;*{fill:#ffebee!important;stroke:#c62828!important;stroke-width:2px!important;color:#000!important;}#mermaid-svg-1754106908441-ywokblzky .externalStyle span{fill:#ffebee!important;stroke:#c62828!important;stroke-width:2px!important;color:#000!important;}#mermaid-svg-1754106908441-ywokblzky .externalStyle tspan{fill:#000!important;}#mermaid-svg-1754106908441-ywokblzky .devStyle&gt;*{fill:#f1f8e9!important;stroke:#558b2f!important;stroke-width:2px!important;color:#000!important;}#mermaid-svg-1754106908441-ywokblzky .devStyle span{fill:#f1f8e9!important;stroke:#558b2f!important;stroke-width:2px!important;color:#000!important;}#mermaid-svg-1754106908441-ywokblzky .devStyle tspan{fill:#000!important;}#mermaid-svg-1754106908441-ywokblzky .toolStyle&gt;*{fill:#fafafa!important;stroke:#616161!important;stroke-width:2px!important;color:#000!important;}#mermaid-svg-1754106908441-ywokblzky .toolStyle span{fill:#fafafa!important;stroke:#616161!important;stroke-width:2px!important;color:#000!important;}#mermaid-svg-1754106908441-ywokblzky .toolStyle tspan{fill:#000!important;}</style><g><marker orient="auto" markerHeight="12" markerWidth="12" markerUnits="userSpaceOnUse" refY="5" refX="6" viewBox="0 0 10 10" class="marker flowchart" id="mermaid-svg-1754106908441-ywokblzky_flowchart-pointEnd"><path style="stroke-width: 1; stroke-dasharray: 1, 0;" class="arrowMarkerPath" d="M 0 0 L 10 5 L 0 10 z"/></marker><marker orient="auto" markerHeight="12" markerWidth="12" markerUnits="userSpaceOnUse" refY="5" refX="4.5" viewBox="0 0 10 10" class="marker flowchart" id="mermaid-svg-1754106908441-ywokblzky_flowchart-pointStart"><path style="stroke-width: 1; stroke-dasharray: 1, 0;" class="arrowMarkerPath" d="M 0 5 L 10 10 L 10 0 z"/></marker><marker orient="auto" markerHeight="11" markerWidth="11" markerUnits="userSpaceOnUse" refY="5" refX="11" viewBox="0 0 10 10" class="marker flowchart" id="mermaid-svg-1754106908441-ywokblzky_flowchart-circleEnd"><circle style="stroke-width: 1; stroke-dasharray: 1, 0;" class="arrowMarkerPath" r="5" cy="5" cx="5"/></marker><marker orient="auto" markerHeight="11" markerWidth="11" markerUnits="userSpaceOnUse" refY="5" refX="-1" viewBox="0 0 10 10" class="marker flowchart" id="mermaid-svg-1754106908441-ywokblzky_flowchart-circleStart"><circle style="stroke-width: 1; stroke-dasharray: 1, 0;" class="arrowMarkerPath" r="5" cy="5" cx="5"/></marker><marker orient="auto" markerHeight="11" markerWidth="11" markerUnits="userSpaceOnUse" refY="5.2" refX="12" viewBox="0 0 11 11" class="marker cross flowchart" id="mermaid-svg-1754106908441-ywokblzky_flowchart-crossEnd"><path style="stroke-width: 2; stroke-dasharray: 1, 0;" class="arrowMarkerPath" d="M 1,1 l 9,9 M 10,1 l -9,9"/></marker><marker orient="auto" markerHeight="11" markerWidth="11" markerUnits="userSpaceOnUse" refY="5.2" refX="-1" viewBox="0 0 11 11" class="marker cross flowchart" id="mermaid-svg-1754106908441-ywokblzky_flowchart-crossStart"><path style="stroke-width: 2; stroke-dasharray: 1, 0;" class="arrowMarkerPath" d="M 1,1 l 9,9 M 10,1 l -9,9"/></marker><g class="root"><g class="clusters"><g id="subGraph6" class="cluster default flowchart-label"><rect height="220" width="489.5625" y="579" x="826.734375" ry="0" rx="0" style=""/><g transform="translate(1039.6640625, 579)" class="cluster-label"><foreignObject height="24" width="63.703125"><div style="display: inline-block; white-space: nowrap;" xmlns="http://www.w3.org/1999/xhtml"><span class="nodeLabel">관리 도구</span></div></foreignObject></g></g><g id="subGraph5" class="cluster default flowchart-label"><rect height="182" width="517.859375" y="0" x="380.5" ry="0" rx="0" style=""/><g transform="translate(607.578125, 0)" class="cluster-label"><foreignObject height="24" width="63.703125"><div style="display: inline-block; white-space: nowrap;" xmlns="http://www.w3.org/1999/xhtml"><span class="nodeLabel">개발 환경</span></div></foreignObject></g></g><g id="subGraph4" class="cluster default flowchart-label"><rect height="182" width="237.578125" y="921" x="40.2890625" ry="0" rx="0" style=""/><g transform="translate(119.8671875, 921)" class="cluster-label"><foreignObject height="24" width="78.421875"><div style="display: inline-block; white-space: nowrap;" xmlns="http://www.w3.org/1999/xhtml"><span class="nodeLabel">외부 서비스</span></div></foreignObject></g></g><g id="subGraph3" class="cluster default flowchart-label"><rect height="182" width="969.1875" y="921" x="326.8984375" ry="0" rx="0" style=""/><g transform="translate(757.5546875, 921)" class="cluster-label"><foreignObject height="24" width="107.875"><div style="display: inline-block; white-space: nowrap;" xmlns="http://www.w3.org/1999/xhtml"><span class="nodeLabel">데이터 스토리지</span></div></foreignObject></g></g><g id="백엔드" class="cluster default flowchart-label"><rect height="220" width="806.734375" y="579" x="0" ry="0" rx="0" style=""/><g transform="translate(381.28125, 579)" class="cluster-label"><foreignObject height="24" width="44.171875"><div style="display: inline-block; white-space: nowrap;" xmlns="http://www.w3.org/1999/xhtml"><span class="nodeLabel">백엔드</span></div></foreignObject></g></g><g id="프론트엔드" class="cluster default flowchart-label"><rect height="225" width="349.84765625" y="256" x="194.265625" ry="0" rx="0" style=""/><g transform="translate(332.384765625, 256)" class="cluster-label"><foreignObject height="24" width="73.609375"><div style="display: inline-block; white-space: nowrap;" xmlns="http://www.w3.org/1999/xhtml"><span class="nodeLabel">프론트엔드</span></div></foreignObject></g></g><g id="사용자" class="cluster default flowchart-label"><rect height="182" width="322.203125" y="0" x="38.296875" ry="0" rx="0" style=""/><g transform="translate(177.3125, 0)" class="cluster-label"><foreignObject height="24" width="44.171875"><div style="display: inline-block; white-space: nowrap;" xmlns="http://www.w3.org/1999/xhtml"><span class="nodeLabel">사용자</span></div></foreignObject></g></g></g><g class="edgePaths"><path marker-end="url(#mermaid-svg-1754106908441-ywokblzky_flowchart-pointEnd)" style="fill:none;" class="edge-thickness-normal edge-pattern-solid flowchart-link LS-A LE-B" id="L-A-B-0" d="M284.023,120L284.023,130.333C284.023,140.667,284.023,161.333,284.023,177.833C284.023,194.333,284.023,206.667,284.023,219C284.023,231.333,284.023,243.667,286.093,253.245C288.162,262.823,292.3,269.646,294.37,273.057L296.439,276.468"/><path marker-end="url(#mermaid-svg-1754106908441-ywokblzky_flowchart-pointEnd)" style="fill:none;" class="edge-thickness-normal edge-pattern-solid flowchart-link LS-C LE-D" id="L-C-D-0" d="M114.594,120L114.594,130.333C114.594,140.667,114.594,161.333,114.594,177.833C114.594,194.333,114.594,206.667,114.594,219C114.594,231.333,114.594,243.667,114.594,268.583C114.594,293.5,114.594,331,114.594,368.5C114.594,406,114.594,443.5,114.594,470.417C114.594,497.333,114.594,513.667,114.594,530C114.594,546.333,114.594,562.667,152.037,584.486C189.481,606.306,264.368,633.611,301.812,647.264L339.255,660.917"/><path marker-end="url(#mermaid-svg-1754106908441-ywokblzky_flowchart-pointEnd)" style="fill:none;" class="edge-thickness-normal edge-pattern-solid flowchart-link LS-B LE-D" id="L-B-D-0" d="M352.262,456L352.262,460.167C352.262,464.333,352.262,472.667,352.262,485C352.262,497.333,352.262,513.667,352.262,530C352.262,546.333,352.262,562.667,354.242,574.237C356.223,585.806,360.183,592.613,362.164,596.016L364.144,599.419"/><path marker-end="url(#mermaid-svg-1754106908441-ywokblzky_flowchart-pointEnd)" style="fill:none;" class="edge-thickness-normal edge-pattern-solid flowchart-link LS-D LE-E" id="L-D-E-0" d="M408.546,774L408.167,778.167C407.789,782.333,407.031,790.667,406.652,805C406.273,819.333,406.273,839.667,406.273,860C406.273,880.333,406.273,900.667,409.493,914.349C412.712,928.03,419.15,935.061,422.369,938.576L425.588,942.091"/><path marker-end="url(#mermaid-svg-1754106908441-ywokblzky_flowchart-pointEnd)" style="fill:none;" class="edge-thickness-normal edge-pattern-solid flowchart-link LS-D LE-F" id="L-D-F-0" d="M488.313,733.274L506.137,744.228C523.961,755.182,559.609,777.091,620.794,798.212C681.979,819.333,768.701,839.667,812.061,860C855.422,880.333,855.422,900.667,855.422,914.117C855.422,927.567,855.422,934.133,855.422,937.417L855.422,940.7"/><path marker-end="url(#mermaid-svg-1754106908441-ywokblzky_flowchart-pointEnd)" style="fill:none;" class="edge-thickness-normal edge-pattern-solid flowchart-link LS-D LE-H" id="L-D-H-0" d="M488.313,719.385L519.771,732.654C551.23,745.924,614.148,772.462,702.642,795.898C791.135,819.333,905.204,839.667,962.239,860C1019.273,880.333,1019.273,900.667,1027.422,916.855C1035.57,933.044,1051.867,945.089,1060.015,951.111L1068.164,957.133"/><path marker-end="url(#mermaid-svg-1754106908441-ywokblzky_flowchart-pointEnd)" style="fill:none;" class="edge-thickness-normal edge-pattern-solid flowchart-link LS-D LE-G" id="L-D-G-0" d="M344.234,719.81L313.375,733.009C282.516,746.207,220.797,772.603,189.938,795.968C159.078,819.333,159.078,839.667,159.078,860C159.078,880.333,159.078,900.667,159.078,914.117C159.078,927.567,159.078,934.133,159.078,937.417L159.078,940.7"/><path marker-end="url(#mermaid-svg-1754106908441-ywokblzky_flowchart-pointEnd)" style="fill:none;" class="edge-thickness-normal edge-pattern-solid flowchart-link LS-L LE-E" id="L-L-E-0" d="M915.055,755L915.055,762.333C915.055,769.667,915.055,784.333,880.59,801.833C846.126,819.333,777.198,839.667,742.734,860C708.27,880.333,708.27,900.667,686.6,919.852C664.931,939.036,621.592,957.073,599.922,966.091L578.253,975.109"/><path marker-end="url(#mermaid-svg-1754106908441-ywokblzky_flowchart-pointEnd)" style="fill:none;" class="edge-thickness-normal edge-pattern-solid flowchart-link LS-I LE-H" id="L-I-H-0" d="M1210.898,755L1210.898,762.333C1210.898,769.667,1210.898,784.333,1210.898,801.833C1210.898,819.333,1210.898,839.667,1210.898,860C1210.898,880.333,1210.898,900.667,1208.293,914.294C1205.688,927.922,1200.478,934.844,1197.873,938.305L1195.268,941.766"/><path marker-end="url(#mermaid-svg-1754106908441-ywokblzky_flowchart-pointEnd)" style="fill:none;" class="edge-thickness-normal edge-pattern-solid flowchart-link LS-J LE-B" id="L-J-B-0" d="M492.664,157L487.946,161.167C483.228,165.333,473.792,173.667,469.074,184C464.355,194.333,464.355,206.667,464.355,219C464.355,231.333,464.355,243.667,460.827,253.374C457.299,263.082,450.243,270.164,446.715,273.705L443.187,277.246"/><path marker-end="url(#mermaid-svg-1754106908441-ywokblzky_flowchart-pointEnd)" style="fill:none;" class="edge-thickness-normal edge-pattern-solid flowchart-link LS-J LE-D" id="L-J-D-0" d="M611.246,157L614.015,161.167C616.783,165.333,622.319,173.667,625.087,184C627.855,194.333,627.855,206.667,627.855,219C627.855,231.333,627.855,243.667,627.855,268.583C627.855,293.5,627.855,331,627.855,368.5C627.855,406,627.855,443.5,627.855,470.417C627.855,497.333,627.855,513.667,627.855,530C627.855,546.333,627.855,562.667,605.382,582.517C582.909,602.368,537.962,625.735,515.488,637.419L493.015,649.103"/><path marker-end="url(#mermaid-svg-1754106908441-ywokblzky_flowchart-pointEnd)" style="fill:none;" class="edge-thickness-normal edge-pattern-solid flowchart-link LS-K LE-D" id="L-K-D-0" d="M786.734,156L786.734,160.333C786.734,164.667,786.734,173.333,786.734,183.833C786.734,194.333,786.734,206.667,786.734,219C786.734,231.333,786.734,243.667,786.734,268.583C786.734,293.5,786.734,331,786.734,368.5C786.734,406,786.734,443.5,786.734,470.417C786.734,497.333,786.734,513.667,786.734,530C786.734,546.333,786.734,562.667,737.844,585.35C688.954,608.034,591.174,637.067,542.283,651.584L493.393,666.101"/></g><g class="edgeLabels"><g transform="translate(284.0234375, 219)" class="edgeLabel"><g transform="translate(-39.2109375, -12)" class="label"><foreignObject height="24" width="78.421875"><div style="display: inline-block; white-space: nowrap;" xmlns="http://www.w3.org/1999/xhtml"><span class="edgeLabel">웹 브라우저</span></div></foreignObject></g></g><g transform="translate(114.59375, 368.5)" class="edgeLabel"><g transform="translate(-46.5703125, -12)" class="label"><foreignObject height="24" width="93.140625"><div style="display: inline-block; white-space: nowrap;" xmlns="http://www.w3.org/1999/xhtml"><span class="edgeLabel">관리자 로그인</span></div></foreignObject></g></g><g transform="translate(352.26171875, 530)" class="edgeLabel"><g transform="translate(-47.84375, -24)" class="label"><foreignObject height="48" width="95.6875"><div style="display: inline-block; white-space: nowrap;" xmlns="http://www.w3.org/1999/xhtml"><span class="edgeLabel">REST API 호출<br />GraphQL 쿼리</span></div></foreignObject></g></g><g transform="translate(406.2734375, 860)" class="edgeLabel"><g transform="translate(-58.1328125, -12)" class="label"><foreignObject height="24" width="116.265625"><div style="display: inline-block; white-space: nowrap;" xmlns="http://www.w3.org/1999/xhtml"><span class="edgeLabel">데이터 저장/조회</span></div></foreignObject></g></g><g transform="translate(855.421875, 860)" class="edgeLabel"><g transform="translate(-50.765625, -12)" class="label"><foreignObject height="24" width="101.53125"><div style="display: inline-block; white-space: nowrap;" xmlns="http://www.w3.org/1999/xhtml"><span class="edgeLabel">캐시 읽기/쓰기</span></div></foreignObject></g></g><g transform="translate(1019.2734375, 860)" class="edgeLabel"><g transform="translate(-72.8515625, -12)" class="label"><foreignObject height="24" width="145.703125"><div style="display: inline-block; white-space: nowrap;" xmlns="http://www.w3.org/1999/xhtml"><span class="edgeLabel">파일 업로드/다운로드</span></div></foreignObject></g></g><g transform="translate(159.078125, 860)" class="edgeLabel"><g transform="translate(-46.5703125, -36)" class="label"><foreignObject height="72" width="93.140625"><div style="display: inline-block; white-space: nowrap;" xmlns="http://www.w3.org/1999/xhtml"><span class="edgeLabel">상품 동기화<br />재고 업데이트<br />주문 처리</span></div></foreignObject></g></g><g transform="translate(708.26953125, 860)" class="edgeLabel"><g transform="translate(-26.5703125, -12)" class="label"><foreignObject height="24" width="53.140625"><div style="display: inline-block; white-space: nowrap;" xmlns="http://www.w3.org/1999/xhtml"><span class="edgeLabel">DB 연결</span></div></foreignObject></g></g><g transform="translate(1210.8984375, 860)" class="edgeLabel"><g transform="translate(-44.140625, -12)" class="label"><foreignObject height="24" width="88.28125"><div style="display: inline-block; white-space: nowrap;" xmlns="http://www.w3.org/1999/xhtml"><span class="edgeLabel">Storage 관리</span></div></foreignObject></g></g><g transform="translate(464.35546875, 219)" class="edgeLabel"><g transform="translate(-46.5703125, -12)" class="label"><foreignObject height="24" width="93.140625"><div style="display: inline-block; white-space: nowrap;" xmlns="http://www.w3.org/1999/xhtml"><span class="edgeLabel">개발환경 관리</span></div></foreignObject></g></g><g transform="translate(627.85546875, 368.5)" class="edgeLabel"><g transform="translate(-46.5703125, -12)" class="label"><foreignObject height="24" width="93.140625"><div style="display: inline-block; white-space: nowrap;" xmlns="http://www.w3.org/1999/xhtml"><span class="edgeLabel">개발환경 관리</span></div></foreignObject></g></g><g transform="translate(786.734375, 368.5)" class="edgeLabel"><g transform="translate(-31.8515625, -12)" class="label"><foreignObject height="24" width="63.703125"><div style="display: inline-block; white-space: nowrap;" xmlns="http://www.w3.org/1999/xhtml"><span class="edgeLabel">설정 적용</span></div></foreignObject></g></g></g><g class="nodes"><g transform="translate(915.0546875, 689)" id="flowchart-L-132" class="node default toolStyle flowchart-label"><rect height="132" width="106.640625" y="-66" x="-53.3203125" ry="0" rx="0" style="" class="basic label-container"/><g transform="translate(-45.8203125, -58.5)" style="" class="label"><rect/><foreignObject height="117" width="91.640625"><div style="display: inline-block; white-space: nowrap;" xmlns="http://www.w3.org/1999/xhtml"><span class="nodeLabel">🔍 Adminer<br />포트: 10008<br />• DB 관리<br />• 데이터 조회<br />• SQL 실행</span></div></foreignObject></g></g><g transform="translate(1210.8984375, 689)" id="flowchart-I-133" class="node default toolStyle flowchart-label"><rect height="132" width="140.796875" y="-66" x="-70.3984375" ry="0" rx="0" style="" class="basic label-container"/><g transform="translate(-62.8984375, -58.5)" style="" class="label"><rect/><foreignObject height="117" width="125.796875"><div style="display: inline-block; white-space: nowrap;" xmlns="http://www.w3.org/1999/xhtml"><span class="nodeLabel">💾 MinIO Console<br />포트: 10010<br />• 파일 관리<br />• 버킷 설정<br />• 업로드/다운로드</span></div></foreignObject></g></g><g transform="translate(567.3984375, 91)" id="flowchart-J-130" class="node default devStyle flowchart-label"><rect height="132" width="185.421875" y="-66" x="-92.7109375" ry="0" rx="0" style="" class="basic label-container"/><g transform="translate(-85.2109375, -58.5)" style="" class="label"><rect/><foreignObject height="117" width="170.421875"><div style="display: inline-block; white-space: nowrap;" xmlns="http://www.w3.org/1999/xhtml"><span class="nodeLabel">📦 Root Workspace<br />• Medusa 코어 개발<br />• 통합 환경 관리<br />• Docker 오케스트레이션<br />• K-뷰티 설정</span></div></foreignObject></g></g><g transform="translate(786.734375, 91)" id="flowchart-K-131" class="node default devStyle flowchart-label"><rect height="130" width="153.25" y="-65" x="-76.625" ry="0" rx="0" style="" class="basic label-container"/><g transform="translate(-69.125, -57.5)" style="" class="label"><rect/><foreignObject height="115" width="138.25"><div style="display: inline-block; white-space: nowrap;" xmlns="http://www.w3.org/1999/xhtml"><span class="nodeLabel">🌸 K-뷰티 설정<br />src/kbeauty/config<br />• 국가별 설정<br />• 브랜드 정보<br />• 마켓플레이스 구성</span></div></foreignObject></g></g><g transform="translate(159.078125, 1012)" id="flowchart-G-129" class="node default externalStyle flowchart-label"><rect height="132" width="167.578125" y="-66" x="-83.7890625" ry="0" rx="0" style="" class="basic label-container"/><g transform="translate(-76.2890625, -58.5)" style="" class="label"><rect/><foreignObject height="117" width="152.578125"><div style="display: inline-block; white-space: nowrap;" xmlns="http://www.w3.org/1999/xhtml"><span class="nodeLabel">🌍 Amazon APIs<br />• 10개국 마켓플레이스<br />• 상품 동기화<br />• 재고 관리<br />• 가격 업데이트</span></div></foreignObject></g></g><g transform="translate(489.609375, 1012)" id="flowchart-E-126" class="node default storageStyle flowchart-label"><rect height="132" width="167.5" y="-66" x="-83.75" ry="0" rx="0" style="" class="basic label-container"/><g transform="translate(-76.25, -58.5)" style="" class="label"><rect/><foreignObject height="117" width="152.5"><div style="display: inline-block; white-space: nowrap;" xmlns="http://www.w3.org/1999/xhtml"><span class="nodeLabel">🗄️ PostgreSQL DB<br />포트: 10002<br />• 상품, 주문 데이터<br />• 사용자 정보<br />• Amazon 동기화 로그</span></div></foreignObject></g></g><g transform="translate(855.421875, 1012)" id="flowchart-F-127" class="node default storageStyle flowchart-label"><rect height="132" width="127.328125" y="-66" x="-63.6640625" ry="0" rx="0" style="" class="basic label-container"/><g transform="translate(-56.1640625, -58.5)" style="" class="label"><rect/><foreignObject height="117" width="112.328125"><div style="display: inline-block; white-space: nowrap;" xmlns="http://www.w3.org/1999/xhtml"><span class="nodeLabel">🚀 Redis Cache<br />포트: 10003<br />• 세션 관리<br />• 캐시 데이터<br />• 큐 관리</span></div></foreignObject></g></g><g transform="translate(1142.40234375, 1012)" id="flowchart-H-128" class="node default storageStyle flowchart-label"><rect height="132" width="139.953125" y="-66" x="-69.9765625" ry="0" rx="0" style="" class="basic label-container"/><g transform="translate(-62.4765625, -58.5)" style="" class="label"><rect/><foreignObject height="117" width="124.953125"><div style="display: inline-block; white-space: nowrap;" xmlns="http://www.w3.org/1999/xhtml"><span class="nodeLabel">📁 MinIO Storage<br />포트: 10009<br />• 이미지 파일<br />• 상품 사진<br />• 첨부 파일</span></div></foreignObject></g></g><g transform="translate(416.2734375, 689)" id="flowchart-D-125" class="node default backendStyle flowchart-label"><rect height="170" width="144.078125" y="-85" x="-72.0390625" ry="0" rx="0" style="" class="basic label-container"/><g transform="translate(-64.5390625, -77.5)" style="" class="label"><rect/><foreignObject height="155" width="129.078125"><div style="display: inline-block; white-space: nowrap;" xmlns="http://www.w3.org/1999/xhtml"><span class="nodeLabel">🔧 kbeauty-app<br />Medusa Backend<br />포트: 10000<br />• E-commerce API<br />• Amazon 통합<br />• 워크플로우<br />• 관리자 패널</span></div></foreignObject></g></g><g transform="translate(352.26171875, 368.5)" id="flowchart-B-124" class="node default frontendStyle flowchart-label"><rect height="175" width="209.03125" y="-87.5" x="-104.515625" ry="0" rx="0" style="" class="basic label-container"/><g transform="translate(-97.015625, -80)" style="" class="label"><rect/><foreignObject height="160" width="194.03125"><div style="display: inline-block; white-space: nowrap;" xmlns="http://www.w3.org/1999/xhtml"><span class="nodeLabel">🎨 kbeauty-app-storefront<br />Next.js 15 Frontend<br />포트: 10004<br />• 상품 브라우징<br />• 장바구니<br />• 결제<br />• 계정 관리</span></div></foreignObject></g></g><g transform="translate(284.0234375, 91)" id="flowchart-A-122" class="node default userStyle flowchart-label"><rect height="58" width="82.953125" y="-29" x="-41.4765625" ry="0" rx="0" style="" class="basic label-container"/><g transform="translate(-33.9765625, -21.5)" style="" class="label"><rect/><foreignObject height="43" width="67.953125"><div style="display: inline-block; white-space: nowrap;" xmlns="http://www.w3.org/1999/xhtml"><span class="nodeLabel">👥 고객<br />Customer</span></div></foreignObject></g></g><g transform="translate(114.59375, 91)" id="flowchart-C-123" class="node default userStyle flowchart-label"><rect height="58" width="82.59375" y="-29" x="-41.296875" ry="0" rx="0" style="" class="basic label-container"/><g transform="translate(-33.796875, -21.5)" style="" class="label"><rect/><foreignObject height="43" width="67.59375"><div style="display: inline-block; white-space: nowrap;" xmlns="http://www.w3.org/1999/xhtml"><span class="nodeLabel">👨‍💼 관리자<br />Admin</span></div></foreignObject></g></g></g></g></g></svg>